<svg xmlns="http://www.w3.org/2000/svg" width="1920" height="1440" viewBox="0 0 1920 1440">
  <defs>
    <style>
      .cls-1 {
        fill-rule: evenodd;
      }
    </style>
  </defs>
  <path id="Color_Fill_1" data-name="Color Fill 1" class="cls-1" d="M0,0H1920V1318c-32.49.19-54.62,4.2-80,1q-19.995-10.5-40-21h-30c-58.58-11.31-99.93,1.77-160-10q-40.995-1.005-82-2c-7.47,1.7-8.63,8.02-14,11q-6,.495-12,1c-17.42,5.22-9.94,7.36-29,0q-7.995,7.005-16,14c-17.22-3.42-24.18-16.17-45-18-7.82-.69-17.63,3.34-23,5h-5q-9-3.495-18-7c-17.69-3.93-36.07-2.63-51-5-7.78-1.23-12.98,4.77-21,1l-14-14c-8.65-3.4-15.47-.24-22-5q-4.995-6-10-12c-3.54-1.13-115.69-4.53-120-3q-4.5,4.005-9,8c-25.85-9.36-78.93-12.2-115-7l-80-3c-54.06,0-110.692,5.35-156-3-4.012-8.99-6.619-23.24-12-32q-32-.495-64-1c-38.206-7.33-107.432-4.82-148-1-11.647,1.1-36.458-1.65-50,1H446c-45.633,0-91.087-2.2-132-4q-51.995-1.005-104-2c-21.385-4.1-57.245-4.26-80,0-9.61,1.8-13.167-4.3-20-4-33.268,1.46-76.476,7.51-110,6V0Z"/>
</svg>
